<?xml version="1.0" encoding="UTF-8"?>
<svg version="1.1" id="Layer_1" xmlns="http://www.w3.org/2000/svg" xmlns:xlink="http://www.w3.org/1999/xlink" x="0px" y="0px"
	 width="100%" viewBox="0 0 1024 1024" enable-background="new 0 0 1024 1024" xml:space="preserve">
<path fill="#000000" opacity="1.000000" stroke="none" 
	d="
M359.000000,760.224976 
	C332.671600,760.227112 306.843201,760.257996 281.014832,760.221924 
	C256.353821,760.187500 243.339615,737.249268 255.622086,715.781677 
	C293.009583,650.434998 330.292938,585.028809 367.657593,519.669128 
	C400.062958,462.984375 432.533081,406.336639 464.953247,349.660339 
	C472.313660,336.792999 479.753510,323.966492 486.845673,310.951630 
	C492.459778,300.649170 500.497314,294.014709 512.455872,293.802490 
	C524.648804,293.586151 533.007080,300.101135 538.873596,310.479492 
	C553.546448,336.436798 568.341980,362.324829 583.128235,388.217834 
	C624.101196,459.968140 665.086914,531.711182 706.083130,603.448242 
	C727.656433,641.198242 749.316528,678.898743 770.832092,716.681580 
	C782.557251,737.271790 769.166565,760.192566 745.424744,760.199707 
	C616.783142,760.238159 488.141571,760.221924 359.000000,760.224976 
M632.161621,495.286926 
	C608.360596,453.632416 584.556580,411.979614 560.760010,370.322540 
	C550.596863,352.531372 540.464966,334.722290 530.279053,316.944122 
	C528.629761,314.065491 527.150452,311.050964 524.653442,308.736938 
	C517.228210,301.855804 503.449463,303.225372 497.393768,313.931305 
	C466.311096,368.882843 434.829193,423.608490 403.519012,478.431488 
	C368.986969,538.895935 334.483307,599.376648 299.981110,659.858093 
	C287.929932,680.983521 275.835419,702.084961 263.932648,723.293823 
	C259.242706,731.650635 261.177002,739.900879 268.585938,745.999817 
	C272.927063,749.573425 278.074402,749.649109 283.259003,749.649292 
	C436.567810,749.653992 589.876587,749.652527 743.185425,749.648926 
	C744.684692,749.648865 746.193542,749.707092 747.681702,749.566895 
	C756.467834,748.739319 762.204712,743.856323 764.257690,735.400696 
	C765.573547,729.981384 763.562988,725.264221 760.949463,720.689758 
	C718.143860,645.766174 675.345520,570.838501 632.161621,495.286926 
z"/>
</svg>